<svg xmlns="http://www.w3.org/2000/svg" viewBox="0 0 318.72 212.14"><defs><style>.cls-1{fill:#fff;}</style></defs><title>Recurso 1</title><g id="Capa_2" data-name="Capa 2"><g id="Capa_1-2" data-name="Capa 1"><g id="Capa_2-2" data-name="Capa 2"><g id="Capa_1-2-2" data-name="Capa 1-2"><path class="cls-1" d="M0,211.51Q.6,159.92,1.35,108T3.9,1.2H34.2V211.51Z"/><path class="cls-1" d="M44.22,210.91,47.52,0l63.6,3.9a33.34,33.34,0,0,1,13.8,7.5,43.58,43.58,0,0,1,9.3,12.45q4.2,8,3.9,20.55,0,6.3-.45,16.2t-.9,21.6q-.45,11.7-.9,24.6t-1.05,25.5q-1.2,29.41-3,62.41a25.66,25.66,0,0,1-5.4,9,32.06,32.06,0,0,1-9,6q-5.71,2.7-14.4,2.4Z"/><path class="cls-1" d="M131,1.5Q153.5.31,178.1.9t47.1.6V24H157.68a202,202,0,0,0-.15,21.3q.45,13.81,1,28t1.5,25.8q.9,11.55,1.2,14.85h56.4v22.5l-56.4,7.5v3.6a189,189,0,0,0,1.35,20.7q1.35,12,1.65,20.7h60.91v22.5h-90Z"/><path class="cls-1" d="M237.72,1.8h29.1q7.8,0,15,.3t12,.6l24.9,208.81h-25.8q-.9-7.2-2.25-17.85T288,171.91q-1.35-11.1-2.85-21.3a119.54,119.54,0,0,0-3.3-16.2l-25.8-3.9a237.49,237.49,0,0,0-5.85,38q-1.65,20.86-5,43.05H219.4Z"/></g></g></g></g></svg>