<svg xmlns="http://www.w3.org/2000/svg" viewBox="0 0 331.34 138.01"><defs><style>.cls-1{fill:#fff;}</style></defs><title>Recurso 1</title><g id="Capa_2" data-name="Capa 2"><g id="Capa_1-2" data-name="Capa 1"><g id="Capa_2-2" data-name="Capa 2"><g id="Capa_1-2-2" data-name="Capa 1-2"><path class="cls-1" d="M0,69A70.83,70.83,0,0,1,5.53,40.52a66.4,66.4,0,0,1,15-21.78A65.3,65.3,0,0,1,42.59,4.84,74.36,74.36,0,0,1,69.4,0a83.74,83.74,0,0,1,20,2.17,95,95,0,0,1,15.08,4.93A70.77,70.77,0,0,1,117.1,14L96.4,50.47a70.12,70.12,0,0,0-6.9-4.53,66.29,66.29,0,0,0-8-3A34.65,34.65,0,0,0,71,41.4a28.56,28.56,0,0,0-11.24,2.17,28.85,28.85,0,0,0-9,5.91,27.11,27.11,0,0,0-6,8.77A26.81,26.81,0,0,0,42.59,69a25.81,25.81,0,0,0,2.27,10.74,27.58,27.58,0,0,0,6.21,8.77,29.38,29.38,0,0,0,9.26,5.91A30.5,30.5,0,0,0,72,96.6,36.8,36.8,0,0,0,83.19,95a41.18,41.18,0,0,0,8.28-3.55,30.42,30.42,0,0,0,6.9-5.12l20.7,36.47a58.61,58.61,0,0,1-12.61,7.69,107,107,0,0,1-15.18,5.13A79.09,79.09,0,0,1,71,138a78.11,78.11,0,0,1-28.39-5,66.89,66.89,0,0,1-22.47-14.09A64,64,0,0,1,5.33,97.09,72,72,0,0,1,0,69Z"/><path class="cls-1" d="M111.73,3.16h45.34a78.13,78.13,0,0,1,23.36,3.35A54.37,54.37,0,0,1,199,16.37a45.19,45.19,0,0,1,12.32,16.06,51.69,51.69,0,0,1,4.44,22A45.17,45.17,0,0,1,213,71.17,51.33,51.33,0,0,1,206.9,82.6,42.59,42.59,0,0,1,198,91.27l24.64,43.37H173.43l-19.71-33.31v33.31h-42Z"/><path class="cls-1" d="M219.38,3.16h34.49l36.27,50.66V3.16h41.2V134.64H296.65L260.58,84.18v50.46h-41.2Z"/></g></g></g></g></svg>