<svg xmlns="http://www.w3.org/2000/svg" viewBox="0 0 318 318"><defs><style>.cls-1{fill:#fff;}</style></defs><title>Recurso 1</title><g id="Capa_2" data-name="Capa 2"><g id="Capa_1-2" data-name="Capa 1"><rect class="cls-1" x="105.6" y="202.8" width="107.8" height="16.8"/><circle class="cls-1" cx="195" cy="146" r="26.6"/><circle class="cls-1" cx="124" cy="146" r="26.6"/><path class="cls-1" d="M159,0A159,159,0,1,0,318,159,159,159,0,0,0,159,0ZM80,176a26.6,26.6,0,0,1,0-53.2Zm151.5,68.6H87.4V100.5h67l2.4-24.4a14.55,14.55,0,1,1,6.5,0l2.8,24.5h65.6v144Zm6.4-68.6V122.7a26.65,26.65,0,0,1,0,53.3Z"/></g></g></svg>