<svg xmlns="http://www.w3.org/2000/svg" viewBox="0 0 817.98 323.84"><defs><style>.cls-1{fill:#fff;}</style></defs><title>Recurso 2</title><g id="Capa_2" data-name="Capa 2"><g id="Capa_1-2" data-name="Capa 1"><g id="Capa_2-2" data-name="Capa 2"><g id="Capa_1-2-2" data-name="Capa 1-2"><path class="cls-1" d="M416.33,110.61c-9.18,22.81-16.76,46.48-25.48,70.57,10.56-.65,19.74-1.08,23.19-1.08,3.67,0,6.89.43,6.89,3.66,0,7.1-6.2,19.37-13.09,19.37-5.51,0-9.87-1.94-18.82-1.94H383.5C377.31,218,370.42,235,362.38,252c-3,4.3-7.12,6.46-9.87,6.46-10.33,0-28.24-1.51-28.24-9.47,0-1.72,1.38-3,2.53-4.09,7.58-5.38,17-22.38,25.94-42.17-5,.43-9.87.86-13.32,1.51-2.3.43-5.28,1.72-7.58,1.72-2.52,0-3.44-2.15-3.44-4.95.46-7.75,4.13-15.06,13.77-16.35,1.84-.22,9.41-.86,19-1.51C374.78,150.2,385.8,117,385.8,117c-47.75,9.9-95.73,17.86-95.73,31.84,0,6.67,15.38,7.75,20.89,7.75,8.72,0,14.46-1.51,21.81-2.15,3.21,0,4.13,1.08,4.13,2.8,0,5.81-15.84,18.72-43.62,18.72-21.12,0-32.83-13.34-32.83-28.19,0-35.29,33.29-35.93,139.58-54.87a1.19,1.19,0,0,1,.69.21c13.09-16.3,30.54-27.71,55.28-27.71,12.86,0,23,3.44,23,12.26C479,92.75,450.77,102.43,416.33,110.61Z"/><path class="cls-1" d="M507.35,199.87q4.61,0,4.61,3.82,0,4.68-5.62,11.17a170.14,170.14,0,0,1-21.9,21q-20.54,16.46-36.68,16.46-11.6,0-19-10.09Q421,231.72,421,214q0-23.27,22.7-51.45,14.41-17.94,27.16-24.35,4-2,6.09-2a10.7,10.7,0,0,1,3.89.68,12.27,12.27,0,0,1,3.28,1.91,9,9,0,0,1,3.53,7.13,27.29,27.29,0,0,1-2.31,9.91,66.09,66.09,0,0,1-6.7,12.21q-9.29,13.76-25.15,26.37-4.11,7.85-4.11,18.88a15.73,15.73,0,0,0,3.17,9.37q3.24,4.4,7.13,4.39,5.33,0,20.39-11l12.83-9.87Q500.79,199.87,507.35,199.87Z"/><path class="cls-1" d="M583.73,214.49q0,7.28,6.41,7.28t22.19-12.32l6.34-5.19q6.27-5.19,12-5.19,2.09,0,2.74,1.12A5.53,5.53,0,0,1,634,203a11.17,11.17,0,0,1-.61,3.53,24.61,24.61,0,0,1-1.69,3.85,36,36,0,0,1-4.61,7.06,66.86,66.86,0,0,1-5.22,5.22q-3,2.7-7.1,6.05t-9.08,6.85q-5,3.49-10,6.38-11.38,6.63-18.73,6.63-8.79,0-13.76-6.2-4.68-5.76-5.26-15.42a101.69,101.69,0,0,1-27.45,20.54q-8.86,4.4-15,4.39a35.28,35.28,0,0,1-10.74-1.48,23.11,23.11,0,0,1-8.07-4.43q-7.49-6.27-7.49-17.44,0-16,11.46-30.84a45.81,45.81,0,0,1,8.07-8.07,37.89,37.89,0,0,1,20.46-6.05q4.76,0,6.77,3a5.17,5.17,0,0,1,.79,3,11,11,0,0,1-1,4.25,50,50,0,0,1-2.56,5q-1.51,2.63-3.35,5.44t-3.35,5.48q-3.6,6.34-3.6,9.11a5,5,0,0,0,1.59,4.07,5.94,5.94,0,0,0,3.89,1.3,15,15,0,0,0,8.72-2.48,66.13,66.13,0,0,0,7.13-5.73L551,209.4l6.56-6.77q7-7.13,10.63-8.9t5.3-1.33a11.81,11.81,0,0,1,3.39,1.55,23.25,23.25,0,0,1,3.39,2.7q3.89,3.75,4.32,6.77a32.4,32.4,0,0,1-.32,5.8A52.27,52.27,0,0,0,583.73,214.49Z"/><path class="cls-1" d="M662.77,246.74a70.58,70.58,0,0,1-10.66,4.54,32.76,32.76,0,0,1-10.2,1.69,25.28,25.28,0,0,1-10.37-2.41,33.24,33.24,0,0,1-9.55-6.45q-9.3-9-9.3-20,0-10.16,6-20.61a53.31,53.31,0,0,1,14.12-15.85q8.57-6.41,15.92-6.41,10.52,0,11.24,5.91a35.77,35.77,0,0,1,.22,4.18,16.12,16.12,0,0,1-1.12,5.44,39,39,0,0,1-2.88,6.13,67.46,67.46,0,0,1-3.89,6q-2.13,2.92-4.07,5.3a65.76,65.76,0,0,1-6,6.56q0,2.45,3.68,5,3.46,2.45,5.87,2.45a17.57,17.57,0,0,0,5.69-1.15,44,44,0,0,0,6.77-3.1q3.49-1.94,7.13-4.47t7.17-5.19L691.81,204q7.85-5.69,12.75-5.69a3.5,3.5,0,0,1,3,1.4,5.35,5.35,0,0,1,1,3.28,11.53,11.53,0,0,1-1.87,5.15,52.58,52.58,0,0,1-5.15,7.24,111,111,0,0,1-7.67,8.29q-4.4,4.33-9.51,8.5t-10.63,8A105.17,105.17,0,0,1,662.77,246.74Zm18.16-79.33a19.69,19.69,0,0,1-4.54,2.88,13,13,0,0,1-5.48,1.12,17.16,17.16,0,0,1-5.84-1,15.36,15.36,0,0,1-4.9-2.81,12.51,12.51,0,0,1-4.54-9.94q0-9.3,15.56-13.83a31.31,31.31,0,0,1,8.65-1.59,13.06,13.06,0,0,1,5.08.76,8,8,0,0,1,2.77,2,7.55,7.55,0,0,1,2.16,5,16.44,16.44,0,0,1-.61,4.65,24.56,24.56,0,0,1-1.76,4.32,32.92,32.92,0,0,1-2.81,4.47A23.77,23.77,0,0,1,680.93,167.41Z"/><path class="cls-1" d="M814.74,197.49q3.24,0,3.24,3.31,0,5.26-6.92,14.84-4.83,6.7-19.89,18.59-17.94,14.05-28.82,14.05A13.58,13.58,0,0,1,750,241.37q-2.52-4.18-4.11-12.25l-6.41,4.61Q713,252,700,252q-10.88,0-17.44-7.93A26.32,26.32,0,0,1,676.75,227q0-11,7.49-17.29,15.28-12.83,38-21.11,9.22-3.39,11.67-3.39a11.92,11.92,0,0,1,4.5.83,24.51,24.51,0,0,1,4.07,2.12q4.76,3.24,4.76,6.27,0,2.45-3,4a31.07,31.07,0,0,1-3.17,1.37q-2.23.86-5.48,2.38a113.62,113.62,0,0,0-17,9.94q-5.91,5-5.91,8t4.18,3q3.46,0,13.83-6.13l6.12-3.75a90.13,90.13,0,0,0,10.52-7.49L750.64,195q6.12-19.31,13.62-31.92,13.26-25.44,26.66-25.44a14.59,14.59,0,0,1,7.78,1.8q5.19,3.24,5.19,7.17a26.74,26.74,0,0,1-1.44,8.32,53.17,53.17,0,0,1-3.78,8.72,82.73,82.73,0,0,1-5.37,8.57L781,188.46q-3.1,4-5.48,7.71-4.18,9-4.18,15.42,0,9.23,6.7,9.22,3.82,0,13.76-8l8.5-7.21a37.86,37.86,0,0,1,11.82-7.49A7.83,7.83,0,0,1,814.74,197.49Z"/><rect class="cls-1" x="40.73" y="160.92" width="347.36" height="2" transform="translate(-14.92 301.9) rotate(-68.46)"/><path class="cls-1" d="M37.13,63.62a14,14,0,0,1-6.83,4.84A29.55,29.55,0,0,1,19.89,70.2,19.32,19.32,0,0,1,9.54,67.4a18.59,18.59,0,0,1-7-7.9A26.76,26.76,0,0,1,0,47.78V41.51Q0,31.19,5.21,25.22t14-6q7.66,0,12.33,3.9a16.1,16.1,0,0,1,5.55,10.75H32.9a12.86,12.86,0,0,0-4.45-8.29,14.31,14.31,0,0,0-9.21-2.82,13.48,13.48,0,0,0-11,4.94q-4.05,5-4.05,14v5.86a24.5,24.5,0,0,0,1.92,10,15.26,15.26,0,0,0,5.52,6.73,14.58,14.58,0,0,0,8.26,2.39,23,23,0,0,0,9.3-1.7,10,10,0,0,0,3.75-2.62V49.52H19.62V46H37.13Z"/><path class="cls-1" d="M67.55,48.84H53.14V69.51H48.91V19.92H65q7.94,0,12.4,3.84t4.46,10.75a13.42,13.42,0,0,1-2.79,8.4,14.29,14.29,0,0,1-7.49,5L84,69.07v.44H79.54ZM53.14,45.3H66a11.9,11.9,0,0,0,8.48-3,10.18,10.18,0,0,0,3.2-7.78,10.22,10.22,0,0,0-3.34-8.15Q71,23.46,65,23.46H53.14Z"/><path class="cls-1" d="M127.46,19.92V53.78a17.15,17.15,0,0,1-2.21,8.72,14.51,14.51,0,0,1-6.15,5.71,20,20,0,0,1-9.11,2q-7.84,0-12.55-4.27T92.55,54.08V19.92H96.7V53.47q0,6.27,3.58,9.72T110,66.65q6.13,0,9.69-3.47t3.56-9.67V19.92Z"/><path class="cls-1" d="M143.34,49.31v20.2h-4.19V19.92H156q7.73,0,12.21,4t4.48,10.87q0,7-4.31,10.78t-12.48,3.8Zm0-3.54H156q6.1,0,9.3-2.9a10.35,10.35,0,0,0,3.2-8.09,10.84,10.84,0,0,0-3.19-8.2q-3.19-3-9-3.12h-13Z"/><path class="cls-1" d="M218.75,47.41a28.66,28.66,0,0,1-2.37,12,18.06,18.06,0,0,1-6.76,8,18.51,18.51,0,0,1-10.15,2.79,17.62,17.62,0,0,1-14-6.22q-5.35-6.22-5.35-16.78V42.09a28.48,28.48,0,0,1,2.4-12A17.84,17.84,0,0,1,199.4,19.24,18.54,18.54,0,0,1,209.5,22a18.13,18.13,0,0,1,6.76,7.8,28.08,28.08,0,0,1,2.49,11.68ZM214.56,42q0-9-4.05-14a14.58,14.58,0,0,0-22.12,0q-4.11,5.09-4.1,14.22v5.18q0,8.82,4.09,14a13.41,13.41,0,0,0,11.1,5.16q7.12,0,11.1-5.09t4-14.19Z"/></g></g></g></g></svg>